<?xml version="1.0" encoding="UTF-8"?>
<svg version="1.1" xmlns="http://www.w3.org/2000/svg" width="64" height="64">
<path d="M0 0 C1.95196289 -0.03673828 1.95196289 -0.03673828 3.94335938 -0.07421875 C5.18794922 -0.07808594 6.43253906 -0.08195313 7.71484375 -0.0859375 C9.43175415 -0.09826416 9.43175415 -0.09826416 11.18334961 -0.11083984 C14.0625 0.375 14.0625 0.375 15.94091797 2.09228516 C17.24005781 4.73637691 17.40917156 6.42362124 17.35546875 9.359375 C17.3409668 10.76123047 17.3409668 10.76123047 17.32617188 12.19140625 C17.30103516 13.15949219 17.27589844 14.12757812 17.25 15.125 C17.22969727 16.60033203 17.22969727 16.60033203 17.20898438 18.10546875 C17.17368726 20.52920415 17.12438054 22.95182145 17.0625 25.375 C18.0525 25.705 19.0425 26.035 20.0625 26.375 C22.58253857 29.82347383 22.22151 33.24073995 22.0625 37.375 C22.7225 37.375 23.3825 37.375 24.0625 37.375 C24.24425781 36.45267578 24.24425781 36.45267578 24.4296875 35.51171875 C24.59726562 34.70347656 24.76484375 33.89523438 24.9375 33.0625 C25.09992187 32.26199219 25.26234375 31.46148437 25.4296875 30.63671875 C26.0625 28.375 26.0625 28.375 28.0625 25.375 C30.625 25.125 30.625 25.125 33.0625 25.375 C34.0625 26.375 34.0625 26.375 34.2109375 29.46484375 C33.95799004 36.12801248 32.76935502 42.29477793 30.0625 48.375 C27.01156362 51.19639885 23.92851138 52.89204525 20.0625 54.375 C20.3925 54.705 20.7225 55.035 21.0625 55.375 C21.1875 58.375 21.1875 58.375 21.0625 61.375 C20.7325 61.705 20.4025 62.035 20.0625 62.375 C15.9462071 62.02014716 12.44633932 61.49621242 8.5 60.25 C3.36544777 58.94302307 -0.55111057 59.96864448 -5.5625 61.4375 C-8.58385664 62.27676573 -10.83542619 62.64871239 -13.9375 62.375 C-14.9375 61.375 -14.9375 61.375 -15.0625 58.375 C-14.9375 55.375 -14.9375 55.375 -13.9375 54.375 C-14.61296875 54.11589844 -15.2884375 53.85679688 -15.984375 53.58984375 C-20.65896745 51.38089616 -23.34170557 49.713292 -25.4921875 44.8828125 C-27.30987982 38.75308195 -28.24518396 32.77968453 -27.9375 26.375 C-26.9375 25.375 -26.9375 25.375 -24.375 25.3125 C-23.1684375 25.3434375 -23.1684375 25.3434375 -21.9375 25.375 C-19.73213821 29.4021824 -18.48089792 32.81045749 -17.9375 37.375 C-17.2775 37.375 -16.6175 37.375 -15.9375 37.375 C-15.94797363 36.32521973 -15.95844727 35.27543945 -15.96923828 34.19384766 C-16.00538453 30.30634967 -16.02838078 26.41886659 -16.04736328 22.53125 C-16.05743317 20.84730534 -16.07108988 19.16337821 -16.08837891 17.47949219 C-16.11258426 15.06180499 -16.12397296 12.64434857 -16.1328125 10.2265625 C-16.14313507 9.4713028 -16.15345764 8.71604309 -16.16409302 7.93789673 C-16.16449318 6.0820602 -16.05972716 4.2268072 -15.9375 2.375 C-12.08734696 -1.47515304 -5.1905211 0.00512644 0 0 Z M-12.9375 4.375 C-13.0377093 6.65447792 -13.06831303 8.93707135 -13.0703125 11.21875 C-13.07126923 11.90304077 -13.07222595 12.58733154 -13.07321167 13.2923584 C-13.0738933 14.74161877 -13.07204023 16.19088218 -13.06787109 17.64013672 C-13.06252252 19.86562928 -13.0678166 22.09092001 -13.07421875 24.31640625 C-13.07355797 25.72135461 -13.0722768 27.12630285 -13.0703125 28.53125 C-13.06918457 29.81837891 -13.06805664 31.10550781 -13.06689453 32.43164062 C-13.27436143 35.26326157 -13.27436143 35.26326157 -11.9375 36.375 C-10.25141034 36.44705511 -8.56249341 36.45886068 -6.875 36.4375 C-5.95589844 36.42847656 -5.03679688 36.41945312 -4.08984375 36.41015625 C-3.37957031 36.39855469 -2.66929688 36.38695312 -1.9375 36.375 C-1.9375 35.385 -1.9375 34.395 -1.9375 33.375 C-4.9075 33.375 -7.8775 33.375 -10.9375 33.375 C-10.9375 31.725 -10.9375 30.075 -10.9375 28.375 C-7.3075 28.375 -3.6775 28.375 0.0625 28.375 C-4.46969967 26.10890016 -6.11522925 26.44764024 -10.9375 27.375 C-10.6075 23.745 -10.2775 20.115 -9.9375 16.375 C-8.54337891 16.39240234 -8.54337891 16.39240234 -7.12109375 16.41015625 C2.01959317 16.49253537 2.01959317 16.49253537 11.0625 15.375 C10.7325 17.685 10.4025 19.995 10.0625 22.375 C11.3825 22.705 12.7025 23.035 14.0625 23.375 C14.08939449 20.41660645 14.10928741 17.45845573 14.125 14.5 C14.13337891 13.65824219 14.14175781 12.81648437 14.15039062 11.94921875 C14.15361328 11.14355469 14.15683594 10.33789062 14.16015625 9.5078125 C14.16539307 8.76418457 14.17062988 8.02055664 14.17602539 7.25439453 C14.18036636 5.28367432 14.18036636 5.28367432 13.0625 3.375 C8.91668113 3.34613249 4.77088784 3.32824673 0.625 3.3125 C-0.55900391 3.30412109 -1.74300781 3.29574219 -2.96289062 3.28710938 C-4.08759766 3.28388672 -5.21230469 3.28066406 -6.37109375 3.27734375 C-7.41322021 3.27210693 -8.45534668 3.26687012 -9.52905273 3.26147461 C-11.88878747 3.10194444 -11.88878747 3.10194444 -12.9375 4.375 Z M-3.9375 20.375 C-2.9375 22.375 -2.9375 22.375 -2.9375 22.375 Z M3.0625 20.375 C3.0625 21.035 3.0625 21.695 3.0625 22.375 C3.7225 22.045 4.3825 21.715 5.0625 21.375 C4.4025 21.045 3.7425 20.715 3.0625 20.375 Z M-24.9375 28.375 C-24.34403556 39.54760311 -24.34403556 39.54760311 -18.50390625 48.53125 C-13.0436096 52.4485308 -13.0436096 52.4485308 -6.58203125 53.0546875 C-5.70933594 52.83039062 -4.83664063 52.60609375 -3.9375 52.375 C-5.41259313 46.63351789 -5.41259313 46.63351789 -9.625 42.875 C-10.388125 42.71 -11.15125 42.545 -11.9375 42.375 C-11.6075 43.365 -11.2775 44.355 -10.9375 45.375 C-14.92664953 44.78401488 -17.19998002 43.32309844 -19.9375 40.375 C-20.91341392 37.51815797 -21.62476246 34.68860028 -22.26171875 31.73828125 C-22.48472656 30.95839844 -22.70773438 30.17851562 -22.9375 29.375 C-23.5975 29.045 -24.2575 28.715 -24.9375 28.375 Z M5.5 29.625 C3.82129676 31.66863873 3.21822517 32.72767206 3.0625 35.375 C4.41650645 38.10481832 4.41650645 38.10481832 6.0625 40.375 C6.7225 40.045 7.3825 39.715 8.0625 39.375 C7.876875 38.6325 7.69125 37.89 7.5 37.125 C6.94016451 33.60603407 7.49165319 31.51669363 9.0625 28.375 C6.98929355 28.16676832 6.98929355 28.16676832 5.5 29.625 Z M30.0625 28.375 C29.60875 29.591875 29.155 30.80875 28.6875 32.0625 C28.4090625 32.79339844 28.130625 33.52429687 27.84375 34.27734375 C27.247767 35.8775581 26.70524914 37.49778842 26.1875 39.125 C24.68267164 42.13465671 22.88381638 43.58587254 20.0625 45.375 C19.0725 45.045 18.0825 44.715 17.0625 44.375 C17.3925 43.715 17.7225 43.055 18.0625 42.375 C15.59294606 42.79122598 15.59294606 42.79122598 13.0625 44.375 C11.72030705 46.9440412 10.85824295 49.59313439 10.0625 52.375 C13.5735094 53.27738646 15.52453195 53.58319873 18.94921875 52.2578125 C24.48658951 48.7824752 28.19511491 46.2709314 29.71484375 39.73046875 C30.27431891 35.93986738 30.75912761 32.19749217 31.0625 28.375 C30.7325 28.375 30.4025 28.375 30.0625 28.375 Z M14.0625 30.375 C14.0625 31.365 14.0625 32.355 14.0625 33.375 C13.0725 33.87 13.0725 33.87 12.0625 34.375 C12.7225 34.375 13.3825 34.375 14.0625 34.375 C14.0625 36.025 14.0625 37.675 14.0625 39.375 C15.72871425 38.2104799 15.72871425 38.2104799 17.0625 36.375 C16.98716753 33.7477086 16.98716753 33.7477086 16.0625 31.375 C15.4025 31.045 14.7425 30.715 14.0625 30.375 Z M-8.9375 39.375 C-8.174375 40.055625 -7.41125 40.73625 -6.625 41.4375 C-3.72458964 44.60771598 -2.54555132 47.42796493 -0.9375 51.375 C0.47841827 53.29783085 0.47841827 53.29783085 2.0625 54.375 C4.2639965 54.58690242 4.2639965 54.58690242 6.1875 52.625 C8.4892896 50.35099309 8.4892896 50.35099309 8.0625 46.375 C7.134375 45.9625 6.20625 45.55 5.25 45.125 C2.0625 43.375 2.0625 43.375 0.6875 41.1875 C-0.75471593 39.18230719 -0.75471593 39.18230719 -2.89453125 39.12109375 C-4.91062835 39.12462457 -6.92572042 39.24308003 -8.9375 39.375 Z M12.0625 39.375 C11.7325 40.035 11.4025 40.695 11.0625 41.375 C12.0525 41.045 13.0425 40.715 14.0625 40.375 C13.4025 40.045 12.7425 39.715 12.0625 39.375 Z M9.0625 55.375 C9.0625 56.035 9.0625 56.695 9.0625 57.375 C13.5175 58.365 13.5175 58.365 18.0625 59.375 C18.0625 58.715 18.0625 58.055 18.0625 57.375 C13.6075 56.385 13.6075 56.385 9.0625 55.375 Z M-11.9375 57.375 C-11.9375 58.035 -11.9375 58.695 -11.9375 59.375 C-8.9675 58.715 -5.9975 58.055 -2.9375 57.375 C-2.9375 56.715 -2.9375 56.055 -2.9375 55.375 C-6.09082957 55.375 -8.93207031 56.48450231 -11.9375 57.375 Z " fill="#F27A1A" transform="translate(28.9375,0.625)"/>
<path d="M0 0 C7.92 0 15.84 0 24 0 C24 2.31 24 4.62 24 7 C22.34605883 8.65394117 20.39684587 8.12999683 18.125 8.1328125 C17.14015625 8.13410156 16.1553125 8.13539062 15.140625 8.13671875 C14.10421875 8.13285156 13.0678125 8.12898437 12 8.125 C10.44539063 8.13080078 10.44539063 8.13080078 8.859375 8.13671875 C7.87453125 8.13542969 6.8896875 8.13414063 5.875 8.1328125 C4.96492188 8.13168457 4.05484375 8.13055664 3.1171875 8.12939453 C1 8 1 8 0 7 C0 4.69 0 2.38 0 0 Z M3 2 C3 2.99 3 3.98 3 5 C8.94 5 14.88 5 21 5 C21 4.01 21 3.02 21 2 C15.06 2 9.12 2 3 2 Z " fill="#ED5621" transform="translate(17,7)"/>
</svg>
