<?xml version="1.0" encoding="UTF-8"?>
<svg version="1.1" xmlns="http://www.w3.org/2000/svg" width="16" height="16">
<path d="M0 0 C2.97 0 5.94 0 9 0 C9 2.31 9 4.62 9 7 C10.32 6.67 11.64 6.34 13 6 C12.25 12.625 12.25 12.625 10 16 C6.61944714 16.69582563 3.39271719 16.60202444 0 16 C-2.57011048 13.35429803 -2.94472502 11.82912475 -3.1875 8.1875 C-3.125625 7.465625 -3.06375 6.74375 -3 6 C-2.34 6 -1.68 6 -1 6 C-0.67 4.02 -0.34 2.04 0 0 Z " fill="#EE5320" transform="translate(3,0)"/>
<path d="M0 0 C1.98 0.66 3.96 1.32 6 2 C6.33 3.65 6.66 5.3 7 7 C8.32 7.33 9.64 7.66 11 8 C11 8.66 11 9.32 11 10 C5.73499663 10.43155765 5.73499663 10.43155765 3 10 C0.58176569 7.35505622 0.04963581 5.7445372 -0.1875 2.1875 C-0.125625 1.465625 -0.06375 0.74375 0 0 Z " fill="#F7A014" transform="translate(0,6)"/>
<path d="M0 0 C2.5 1.375 2.5 1.375 5 3 C5 3.66 5 4.32 5 5 C5.9590625 5.4640625 5.9590625 5.4640625 6.9375 5.9375 C9 7 9 7 10 8 C10.04063832 9.66617115 10.042721 11.33388095 10 13 C9.34 13 8.68 13 8 13 C8 12.34 8 11.68 8 11 C7.34 11 6.68 11 6 11 C6 10.34 6 9.68 6 9 C5.34 9 4.68 9 4 9 C3.67 8.01 3.34 7.02 3 6 C2.01 5.34 1.02 4.68 0 4 C0 2.68 0 1.36 0 0 Z " fill="#F37D1A" transform="translate(3,3)"/>
<path d="M0 0 C0.66 0 1.32 0 2 0 C7 5.47619048 7 5.47619048 7 8 C6.34 8 5.68 8 5 8 C5 7.34 5 6.68 5 6 C4.360625 5.7525 3.72125 5.505 3.0625 5.25 C1 4 1 4 0.25 1.875 C0.1675 1.25625 0.085 0.6375 0 0 Z " fill="#EF651F" transform="translate(3,0)"/>
<path d="M0 0 C0.99 0.495 0.99 0.495 2 1 C2 1.66 2 2.32 2 3 C4.475 3.99 4.475 3.99 7 5 C7 5.66 7 6.32 7 7 C5.68 7 4.36 7 3 7 C0 2.92857143 0 2.92857143 0 0 Z " fill="#FBBC0F" transform="translate(0,9)"/>
<path d="M0 0 C2.31 0 4.62 0 7 0 C7 1.65 7 3.3 7 5 C3.535 3.02 3.535 3.02 0 1 C0 0.67 0 0.34 0 0 Z " fill="#EC4124" transform="translate(5,0)"/>
</svg>
